<svg width="34" height="34" viewBox="0 0 34 34" fill="none" xmlns="http://www.w3.org/2000/svg">
<path d="M10.9387 14.3792H7.63125C7.35038 14.3792 7.12305 14.6065 7.12305 14.8874V18.1948C7.12305 18.4753 7.35038 18.703 7.63125 18.703H10.9387C11.2195 18.703 11.4469 18.4753 11.4469 18.1948V14.8874C11.4469 14.6068 11.2195 14.3792 10.9387 14.3792ZM10.4305 17.6866H8.13946V15.3956H10.4305V17.6866Z" fill="black"/>
<path d="M18.6525 14.3792H15.3451C15.0643 14.3792 14.8369 14.6065 14.8369 14.8874V18.1948C14.8369 18.4753 15.0643 18.703 15.3451 18.703H18.6525C18.9331 18.703 19.1607 18.4753 19.1607 18.1948V14.8874C19.1607 14.6068 18.9331 14.3792 18.6525 14.3792ZM18.1443 17.6866H15.8533V15.3956H18.1443V17.6866Z" fill="black"/>
<path d="M26.1286 14.3792H22.8212C22.5407 14.3792 22.313 14.6065 22.313 14.8874V18.1948C22.313 18.4753 22.5407 18.703 22.8212 18.703H26.1286C26.4091 18.703 26.6368 18.4753 26.6368 18.1948V14.8874C26.6368 14.6068 26.4091 14.3792 26.1286 14.3792ZM25.6204 17.6866H23.3294V15.3956H25.6204V17.6866Z" fill="black"/>
<path d="M10.9387 21.9128H7.63125C7.35038 21.9128 7.12305 22.1405 7.12305 22.421V25.7285C7.12305 26.009 7.35038 26.2367 7.63125 26.2367H10.9387C11.2195 26.2367 11.4469 26.009 11.4469 25.7285V22.421C11.4469 22.1405 11.2195 21.9128 10.9387 21.9128ZM10.4305 25.2202H8.13946V22.9293H10.4305V25.2202Z" fill="black"/>
<path d="M18.6525 21.9128H15.3451C15.0643 21.9128 14.8369 22.1405 14.8369 22.421V25.7285C14.8369 26.009 15.0643 26.2367 15.3451 26.2367H18.6525C18.9331 26.2367 19.1607 26.009 19.1607 25.7285V22.421C19.1607 22.1405 18.9331 21.9128 18.6525 21.9128ZM18.1443 25.2202H15.8533V22.9293H18.1443V25.2202Z" fill="black"/>
<path d="M26.1286 21.9128H22.8212C22.5407 21.9128 22.313 22.1405 22.313 22.421V25.7285C22.313 26.009 22.5407 26.2367 22.8212 26.2367H26.1286C26.4091 26.2367 26.6368 26.009 26.6368 25.7285V22.421C26.6368 22.1405 26.4091 21.9128 26.1286 21.9128ZM25.6204 25.2202H23.3294V22.9293H25.6204V25.2202Z" fill="black"/>
<path d="M30.1536 4.53794H26.7971C26.7927 4.53794 26.7889 4.53896 26.7845 4.5393V3.86237C26.7845 2.75516 25.884 1.85461 24.7768 1.85461C23.6696 1.85461 22.769 2.75549 22.769 3.86237V4.53794H18.9869V3.86237C18.9869 2.75516 18.0864 1.85461 16.9792 1.85461C15.872 1.85461 14.9714 2.75549 14.9714 3.86237V4.53794H11.189V3.86237C11.189 2.75516 10.2885 1.85461 9.18128 1.85461C8.07407 1.85461 7.17352 2.75549 7.17352 3.86237V4.53828C7.17183 4.53828 7.17014 4.53794 7.16844 4.53794H3.81259C3.53172 4.53794 3.30438 4.76528 3.30438 5.04615V31.3868C3.30438 31.6673 3.53172 31.895 3.81259 31.895H30.1536C30.4341 31.895 30.6618 31.6673 30.6618 31.3868V5.04615C30.6618 4.76528 30.4341 4.53794 30.1536 4.53794ZM23.7854 3.86237C23.7854 3.31554 24.2299 2.87103 24.7768 2.87103C25.3236 2.87103 25.7681 3.31554 25.7681 3.86237V6.66665C25.7681 7.21314 25.3236 7.65799 24.7768 7.65799C24.2299 7.65799 23.7854 7.21348 23.7854 6.66665V3.86237ZM16.9792 2.87103C17.5257 2.87103 17.9705 3.31554 17.9705 3.86237V6.66665C17.9705 7.21314 17.526 7.65799 16.9792 7.65799C16.4324 7.65799 15.9878 7.21348 15.9878 6.66665V5.09358C15.9892 5.07766 15.9926 5.06241 15.9926 5.04581C15.9926 5.02921 15.9892 5.01396 15.9878 4.99804V3.86237C15.9878 3.31554 16.4324 2.87103 16.9792 2.87103ZM8.18994 3.86237C8.18994 3.31554 8.63445 2.87103 9.18128 2.87103C9.72777 2.87103 10.1726 3.31554 10.1726 3.86237V6.66665C10.1726 7.21314 9.72811 7.65799 9.18128 7.65799C8.63445 7.65799 8.18994 7.21348 8.18994 6.66665V3.86237V3.86237ZM29.6454 30.8786H4.32079V5.55435H7.16844C7.17014 5.55435 7.17183 5.55402 7.17352 5.55402V6.66699C7.17352 7.7742 8.0744 8.67474 9.18128 8.67474C10.2882 8.67474 11.189 7.7742 11.189 6.66699V5.55469H14.9714V6.66699C14.9714 7.7742 15.8723 8.67474 16.9792 8.67474C18.0861 8.67474 18.9869 7.7742 18.9869 6.66699V5.55469H22.769V6.66699C22.769 7.7742 23.6696 8.67474 24.7768 8.67474C25.884 8.67474 26.7845 7.7742 26.7845 6.66699V5.553C26.7889 5.553 26.7927 5.55435 26.7971 5.55435H29.6454V30.8786Z" fill="black"/>
</svg>
