<svg width="15" height="14" viewBox="0 0 15 14" fill="none" xmlns="http://www.w3.org/2000/svg">
<path d="M6.28597 0.0490275C3.02763 0.403194 0.4068 3.02403 0.0526331 6.21153C-0.372367 9.75319 1.82347 12.799 4.94013 13.7907V12.1615C4.94013 12.1615 4.6568 12.2324 4.30263 12.2324C3.31097 12.2324 2.88597 11.3824 2.81513 10.8865C2.7443 10.6032 2.60263 10.3907 2.39013 10.1782C2.17763 10.1074 2.1068 10.1074 2.1068 10.0365C2.1068 9.89486 2.3193 9.89486 2.39013 9.89486C2.81513 9.89486 3.1693 10.3907 3.31097 10.6032C3.66513 11.1699 4.09013 11.3115 4.30263 11.3115C4.58597 11.3115 4.79847 11.2407 4.94013 11.1699C5.01097 10.674 5.22347 10.1782 5.64847 9.89486C4.0193 9.54069 2.81513 8.61986 2.81513 7.06153C2.81513 6.28236 3.1693 5.50319 3.66513 4.93653C3.5943 4.79486 3.52347 4.44069 3.52347 3.94486C3.52347 3.66153 3.52347 3.23653 3.73597 2.81153C3.73597 2.81153 4.72763 2.81153 5.7193 3.73236C6.07347 3.59069 6.5693 3.51986 7.06513 3.51986C7.56097 3.51986 8.0568 3.59069 8.4818 3.73236C9.40263 2.81153 10.4651 2.81153 10.4651 2.81153C10.6068 3.23653 10.6068 3.66153 10.6068 3.94486C10.6068 4.51153 10.536 4.79486 10.4651 4.93653C10.961 5.50319 11.3151 6.21153 11.3151 7.06153C11.3151 8.61986 10.111 9.54069 8.4818 9.89486C8.9068 10.249 9.19013 10.8865 9.19013 11.524V13.8615C12.0943 12.9407 14.1485 10.249 14.1485 7.13236C14.1485 2.88236 10.536 -0.446806 6.28597 0.0490275Z" fill="black"/>
</svg>
