<svg width="50" height="50" viewBox="0 0 50 50" fill="none" xmlns="http://www.w3.org/2000/svg">
<path d="M26.4881 9.1442C16.9048 10.1859 9.19647 17.8942 8.1548 27.2692C6.9048 37.6859 13.3631 46.6442 22.5298 49.5609V44.7692C22.5298 44.7692 21.6965 44.9775 20.6548 44.9775C17.7381 44.9775 16.4881 42.4775 16.2798 41.0192C16.0715 40.1859 15.6548 39.5609 15.0298 38.9359C14.4048 38.7275 14.1965 38.7275 14.1965 38.5192C14.1965 38.1025 14.8215 38.1025 15.0298 38.1025C16.2798 38.1025 17.3215 39.5609 17.7381 40.1859C18.7798 41.8525 20.0298 42.2692 20.6548 42.2692C21.4881 42.2692 22.1131 42.0609 22.5298 41.8525C22.7381 40.3942 23.3631 38.9359 24.6131 38.1025C19.8215 37.0609 16.2798 34.3525 16.2798 29.7692C16.2798 27.4775 17.3215 25.1859 18.7798 23.5192C18.5715 23.1025 18.3631 22.0609 18.3631 20.6025C18.3631 19.7692 18.3631 18.5192 18.9881 17.2692C18.9881 17.2692 21.9048 17.2692 24.8215 19.9775C25.8631 19.5609 27.3215 19.3525 28.7798 19.3525C30.2381 19.3525 31.6965 19.5609 32.9465 19.9775C35.6548 17.2692 38.7798 17.2692 38.7798 17.2692C39.1965 18.5192 39.1965 19.7692 39.1965 20.6025C39.1965 22.2692 38.9881 23.1025 38.7798 23.5192C40.2381 25.1859 41.2798 27.2692 41.2798 29.7692C41.2798 34.3525 37.7381 37.0609 32.9465 38.1025C34.1965 39.1442 35.0298 41.0192 35.0298 42.8942V49.7692C43.5715 47.0609 49.6131 39.1442 49.6131 29.9775C49.6131 17.4775 38.9881 7.68587 26.4881 9.1442Z" fill="#E5E5E5"/>
</svg>
