<svg width="45" height="45" viewBox="0 0 45 45" fill="none" xmlns="http://www.w3.org/2000/svg">
<path d="M40.8765 0H4.12354C1.875 0 0 1.875 0 4.12354V40.8765C0 43.125 1.875 45 4.12354 45H40.8765C43.125 45 45 43.125 45 40.8765V4.12354C45 1.875 43.125 0 40.8765 0ZM13.125 37.5H5.625V16.875H13.125V37.5ZM9.375 14.436C7.12646 14.436 5.625 12.9346 5.625 11.0596C5.625 9.00146 7.12646 7.5 9.375 7.5C11.6235 7.5 13.125 9.00146 13.125 10.8765C13.125 12.9346 11.6235 14.436 9.375 14.436ZM39.375 37.5H31.875V26.25C31.875 23.2471 29.8096 22.5 29.2529 22.5C28.689 22.5 26.25 22.8735 26.25 26.25C26.25 26.6235 26.25 37.5 26.25 37.5H18.75V16.875H26.25V19.8779C27.3779 18.186 29.2529 16.875 32.8125 16.875C36.3721 16.875 39.375 19.6875 39.375 26.25V37.5Z" fill="white"/>
</svg>
