<svg width="50" height="50" viewBox="0 0 50 50" fill="none" xmlns="http://www.w3.org/2000/svg">
<path d="M35.4167 6.25H14.5833C9.98125 6.25 6.25 9.98125 6.25 14.5833V35.4167C6.25 40.0187 9.98125 43.75 14.5833 43.75H35.4167C40.0187 43.75 43.75 40.0187 43.75 35.4167V14.5833C43.75 9.98125 40.0187 6.25 35.4167 6.25ZM35.5208 19.8208C35.5208 20 35.5208 20.1771 35.5208 20.5354C35.5208 27.3208 30.3417 35.1792 20.8771 35.1792C18.0208 35.1792 15.3417 34.2854 13.0208 32.8583C13.3771 32.8583 13.9146 32.8583 14.2708 32.8583C16.5917 32.8583 18.9146 31.9646 20.7 30.7146C18.3792 30.7146 16.5938 29.1083 15.8792 27.1437C16.2354 27.1437 16.5937 27.3229 16.7729 27.3229C17.3083 27.3229 17.6667 27.3229 18.2021 27.1437C15.8813 26.6083 14.0958 24.6437 14.0958 22.1437C14.8104 22.5 15.525 22.6792 16.4167 22.8583C14.9875 21.6083 14.0958 20.1792 14.0958 18.3938C14.0958 17.5 14.275 16.6083 14.8104 15.8938C17.3104 18.9292 21.0604 21.0729 25.3458 21.25C25.3458 20.8937 25.1667 20.5354 25.1667 20C25.1667 17.1438 27.4875 14.8208 30.3458 14.8208C31.775 14.8208 33.2021 15.3563 34.0958 16.4271C35.3458 16.2479 36.4167 15.7125 37.3104 15.1771C36.9542 16.4271 36.0604 17.3208 34.9896 18.0333C36.0604 17.8542 36.9542 17.6771 38.025 17.1396C37.3063 18.2146 36.4146 19.1062 35.5208 19.8208Z" fill="white"/>
</svg>
